<?xml version="1.0" encoding="UTF-8" standalone="no"?><!DOCTYPE svg PUBLIC "-//W3C//DTD SVG 1.1//EN" "http://www.w3.org/Graphics/SVG/1.1/DTD/svg11.dtd"><svg width="100%" height="100%" viewBox="0 0 5689 5223" version="1.1" xmlns="http://www.w3.org/2000/svg" xmlns:xlink="http://www.w3.org/1999/xlink" xml:space="preserve" xmlns:serif="http://www.serif.com/" style="fill-rule:evenodd;clip-rule:evenodd;stroke-linejoin:round;stroke-miterlimit:2;"><g><path d="M3743.32,2348.08c241.514,80.966 437.423,200.736 587.708,359.301l394.973,1072.11c-45.291,947.996 -646.048,1428.89 -1802.27,1442.74c-761.133,0 -1415.38,-234.918 -1962.74,-704.753l510.946,-584.945c408.757,335.932 895.037,506.247 1458.84,510.946c667.166,-9.397 1005.45,-247.838 1014.85,-715.325c4.157,-338.804 -170.079,-558.066 -522.746,-657.795l320.444,-722.272Zm-1746.95,409.078c-160.755,-80.377 -296.812,-181.92 -408.146,-304.614c-68.713,-75.516 -127.476,-155.76 -176.293,-240.741l112.639,-354.19l471.8,899.545Zm565.015,-629.352c55.263,16.679 114.972,30.959 179.11,42.836c79.511,13.252 175.467,27.625 287.849,43.116l-183.898,481.571l-283.061,-567.523Zm-862.618,-1729.5c287.789,-260.932 691.423,-393.71 1210.87,-398.307c324.025,7.148 626.605,56.28 907.782,147.411l-281.456,737.047c-211.99,-65.77 -433.693,-101.007 -665.087,-105.706c-239.616,0 -439.297,59.904 -599.041,179.713c-79.759,59.539 -140.986,133.045 -183.684,220.531l-389.383,-780.689Zm2454.22,-117.363c147.868,70.482 289.007,154.201 423.391,251.145l-201.714,298.471l-221.677,-549.616Z"/><path d="M2844.44,4116.73l-1368.43,-2677.39l-1086.56,3567.3l-389.505,-328.578l1405.13,-4590.53l1439.36,3072.74l1129.85,-3024.11l1714.64,4541.9l-317.938,456.623l-1383.08,-3809.94l-1143.48,2791.98Z" style="fill-rule:nonzero;"/></g></svg>