<?xml version="1.0" encoding="UTF-8"?><svg id="Warstwa_1" xmlns="http://www.w3.org/2000/svg" viewBox="0 0 500 500"><defs><style>.cls-1{fill:#fff;}</style></defs><g><path class="cls-1" d="M145.24,250.74h-17.82v31.68h-14.04v-31.68H54.16v-9.9l57.42-73.26h15.84v71.28h17.82v11.88Zm-31.86-11.88v-35.64c.12-3.12,.24-6.51,.36-10.17,.12-3.66,.3-7.05,.54-10.17h-.9c-1.8,2.76-3.72,5.55-5.76,8.37-2.04,2.82-4.02,5.61-5.94,8.37l-31.14,39.24h42.84Z"/><path class="cls-1" d="M251.44,284.58c-12.84,0-22.92-5.19-30.24-15.57-7.32-10.38-10.98-25.17-10.98-44.37s3.66-34.02,10.98-44.1c7.32-10.08,17.4-15.12,30.24-15.12s22.92,5.04,30.24,15.12c7.32,10.08,10.98,24.78,10.98,44.1s-3.66,33.99-10.98,44.37c-7.32,10.38-17.4,15.57-30.24,15.57Zm0-107.28c-3.96,0-7.62,.9-10.98,2.7-3.36,1.8-6.27,4.65-8.73,8.55-2.46,3.9-4.35,8.82-5.67,14.76-1.32,5.94-1.98,13.05-1.98,21.33,0,16.44,2.55,28.56,7.65,36.36,5.1,7.8,11.67,11.7,19.71,11.7s14.61-3.9,19.71-11.7c5.1-7.8,7.65-19.92,7.65-36.36,0-8.28-.66-15.39-1.98-21.33-1.32-5.94-3.21-10.86-5.67-14.76-2.46-3.9-5.37-6.75-8.73-8.55-3.36-1.8-7.02-2.7-10.98-2.7Zm0,58.14c-3,0-5.61-1.05-7.83-3.15-2.22-2.1-3.33-5.07-3.33-8.91s1.11-6.63,3.33-8.73c2.22-2.1,4.83-3.15,7.83-3.15s5.61,1.05,7.83,3.15c2.22,2.1,3.33,5.01,3.33,8.73s-1.11,6.81-3.33,8.91c-2.22,2.1-4.83,3.15-7.83,3.15Z"/><path class="cls-1" d="M445.84,250.74h-17.82v31.68h-14.04v-31.68h-59.22v-9.9l57.42-73.26h15.84v71.28h17.82v11.88Zm-31.86-11.88v-35.64c.12-3.12,.24-6.51,.36-10.17,.12-3.66,.3-7.05,.54-10.17h-.9c-1.8,2.76-3.72,5.55-5.76,8.37-2.04,2.82-4.02,5.61-5.94,8.37l-31.14,39.24h42.84Z"/></g><g><path class="cls-1" d="M39.41,316.1h4.22c.76,0,1.45,.07,2.08,.21,.63,.14,1.17,.37,1.61,.68,.44,.32,.78,.73,1.03,1.25,.24,.52,.37,1.16,.37,1.91s-.12,1.36-.37,1.89c-.25,.53-.59,.97-1.04,1.32-.45,.35-.98,.61-1.61,.79-.62,.18-1.31,.26-2.07,.26h-2.48v5.46h-1.74v-13.78Zm3.99,6.89c1.22,0,2.12-.23,2.7-.68,.58-.46,.87-1.17,.87-2.15s-.3-1.68-.89-2.07c-.6-.39-1.49-.58-2.68-.58h-2.25v5.48h2.25Z"/><path class="cls-1" d="M49.8,327.23c0-.57,.14-1.07,.41-1.5s.71-.79,1.3-1.1c.59-.31,1.36-.56,2.3-.76s2.06-.35,3.38-.46c-.01-.35-.07-.68-.17-.99-.1-.31-.25-.58-.46-.81-.21-.23-.49-.42-.83-.56-.34-.14-.76-.21-1.25-.21-.67,0-1.32,.13-1.93,.39-.62,.26-1.16,.54-1.64,.83l-.67-1.18c.25-.17,.55-.34,.89-.51,.34-.17,.71-.33,1.09-.47,.38-.14,.79-.26,1.23-.35,.43-.09,.88-.14,1.32-.14,1.4,0,2.44,.38,3.12,1.14,.68,.76,1.02,1.78,1.02,3.06v6.26h-1.41l-.15-1.39h-.06c-.57,.45-1.21,.83-1.9,1.15-.69,.32-1.4,.48-2.13,.48-.48,0-.92-.07-1.34-.2-.42-.13-.79-.32-1.1-.57-.32-.25-.56-.55-.75-.9-.18-.36-.27-.77-.27-1.23Zm1.68-.13c0,.29,.06,.54,.19,.75s.29,.37,.49,.5c.2,.13,.44,.23,.71,.29,.27,.06,.56,.09,.85,.09,.59,0,1.17-.13,1.73-.39,.57-.26,1.14-.63,1.73-1.12v-2.69c-1.09,.08-2.01,.2-2.74,.36-.73,.15-1.32,.34-1.76,.56-.44,.22-.75,.46-.93,.74s-.27,.58-.27,.91Z"/><path class="cls-1" d="M60.45,331.75c0-.41,.14-.81,.43-1.2s.7-.75,1.25-1.07v-.08c-.28-.15-.52-.36-.73-.63-.21-.27-.31-.62-.31-1.05,0-.32,.1-.65,.31-1s.51-.65,.9-.91v-.08c-.35-.27-.65-.62-.89-1.06-.25-.44-.37-.97-.37-1.58,0-.56,.11-1.06,.33-1.51,.22-.45,.51-.83,.87-1.14,.36-.31,.79-.56,1.27-.73s1-.26,1.54-.26,1.06,.08,1.51,.25h4.22v1.32h-2.73c.24,.25,.46,.56,.65,.92,.2,.36,.29,.77,.29,1.22,0,.55-.1,1.04-.3,1.47-.2,.43-.48,.8-.84,1.1-.36,.3-.78,.53-1.26,.69-.48,.16-1,.24-1.54,.24-.27,0-.55-.03-.85-.09-.3-.06-.59-.16-.87-.28-.53,.34-.8,.73-.8,1.18,0,.41,.19,.7,.56,.89,.37,.19,.89,.28,1.56,.28h2.29c1.32,0,2.29,.18,2.93,.55,.64,.36,.96,.98,.96,1.85,0,.48-.13,.93-.4,1.37-.27,.43-.64,.81-1.13,1.13-.49,.32-1.08,.58-1.79,.78-.7,.2-1.48,.29-2.35,.29-1.5,0-2.66-.25-3.48-.74-.82-.49-1.23-1.19-1.23-2.1Zm1.49-.17c0,.53,.28,.97,.85,1.3s1.4,.5,2.49,.5c.59,0,1.12-.06,1.6-.18,.48-.12,.88-.28,1.22-.47,.34-.2,.59-.42,.77-.67,.17-.25,.26-.51,.26-.78,0-.49-.19-.82-.58-.99-.39-.17-.97-.25-1.75-.25h-2c-.29,0-.57-.01-.83-.03-.26-.02-.5-.07-.72-.14-.49,.27-.83,.54-1.02,.83s-.28,.58-.28,.87Zm3.11-6.09c.66,0,1.21-.22,1.67-.65,.46-.43,.68-1.02,.68-1.76,0-.35-.06-.67-.19-.97-.13-.29-.29-.55-.5-.76s-.46-.37-.75-.49-.59-.18-.91-.18-.63,.06-.91,.18-.54,.28-.75,.49-.38,.46-.5,.76c-.13,.29-.19,.62-.19,.97,0,.74,.23,1.33,.69,1.76,.46,.43,1.01,.65,1.66,.65Z"/><path class="cls-1" d="M71.22,324.8c0-.84,.15-1.59,.44-2.26,.29-.66,.68-1.23,1.17-1.69,.48-.46,1.04-.82,1.66-1.06,.62-.24,1.26-.37,1.92-.37,.73,0,1.38,.12,1.95,.35,.57,.23,1.06,.56,1.46,.98s.7,.92,.91,1.51,.31,1.24,.31,1.95c0,.38-.02,.69-.06,.95h-7.98c.07,1.11,.46,1.98,1.17,2.62,.71,.64,1.62,.97,2.74,.97,.6,0,1.15-.08,1.65-.25,.5-.17,.98-.4,1.46-.69l.61,1.13c-.5,.32-1.08,.6-1.72,.84-.64,.24-1.38,.36-2.2,.36-.76,0-1.47-.12-2.13-.37-.67-.25-1.25-.59-1.74-1.05-.5-.46-.89-1.01-1.18-1.67s-.43-1.41-.43-2.25Zm8.23-.78c0-1.05-.27-1.85-.8-2.4-.53-.55-1.27-.83-2.23-.83-.42,0-.82,.07-1.21,.22-.39,.15-.73,.36-1.04,.63-.31,.27-.57,.61-.79,1.01-.22,.4-.35,.86-.41,1.38h6.47Z"/><path class="cls-1" d="M93.4,319.67h1.43l.15,1.74h.08c.53-.57,1.11-1.05,1.72-1.43,.62-.38,1.32-.57,2.12-.57,1.22,0,2.11,.35,2.68,1.04,.57,.69,.85,1.72,.85,3.08v6.34h-1.72v-6.11c0-.97-.18-1.68-.55-2.15-.36-.47-.97-.7-1.81-.7-.31,0-.59,.04-.85,.12-.26,.08-.51,.19-.77,.35s-.51,.35-.78,.58c-.27,.23-.55,.5-.84,.81v7.12h-1.72v-10.21Z"/><path class="cls-1" d="M103.54,324.8c0-.85,.14-1.61,.41-2.28s.64-1.23,1.1-1.69,1-.81,1.61-1.05,1.25-.36,1.92-.36,1.31,.12,1.92,.36c.61,.24,1.14,.59,1.61,1.05s.83,1.03,1.1,1.69,.41,1.42,.41,2.28-.14,1.59-.41,2.26-.64,1.22-1.1,1.68-1,.8-1.61,1.04c-.61,.24-1.25,.36-1.92,.36s-1.31-.12-1.92-.36c-.61-.24-1.14-.58-1.61-1.04s-.83-1.01-1.1-1.68-.41-1.42-.41-2.26Zm1.79,0c0,.59,.08,1.12,.23,1.6,.15,.48,.37,.89,.66,1.23,.29,.34,.63,.61,1.03,.8,.4,.19,.84,.28,1.33,.28s.93-.09,1.33-.28c.4-.19,.74-.45,1.03-.8,.29-.34,.51-.75,.66-1.23,.15-.48,.23-1.01,.23-1.6s-.08-1.12-.23-1.61c-.15-.48-.38-.9-.66-1.25-.29-.35-.63-.62-1.03-.81-.4-.19-.84-.28-1.33-.28s-.93,.09-1.33,.28c-.4,.19-.74,.46-1.03,.81-.29,.35-.51,.77-.66,1.25-.15,.48-.23,1.02-.23,1.61Z"/><path class="cls-1" d="M117.44,321.08h-2.88v-1.3l2.94-.11,.23-2.86h1.43v2.86h5v1.41h-5v4.85c0,.46,.04,.87,.13,1.21s.22,.63,.42,.87c.2,.24,.46,.42,.8,.54,.34,.12,.75,.18,1.24,.18s.93-.04,1.32-.13c.39-.08,.77-.2,1.13-.34l.36,1.26c-.45,.17-.95,.31-1.51,.43-.56,.12-1.12,.18-1.68,.18-.74,0-1.36-.1-1.87-.3-.5-.2-.91-.49-1.21-.86-.3-.37-.52-.82-.65-1.33-.13-.52-.2-1.09-.2-1.72v-4.83Z"/><path class="cls-1" d="M146.52,316.56c-.42-.2-.81-.33-1.17-.39-.36-.06-.76-.09-1.21-.09-.92,0-1.59,.23-1.98,.7-.4,.47-.6,1.12-.6,1.96v.92h4.28v1.41h-4.28v8.8h-1.7v-8.8h-2.92v-1.3l2.92-.11v-.86c0-1.25,.33-2.25,1-3,.66-.76,1.7-1.13,3.12-1.13,1.01,0,1.99,.2,2.94,.59l-.4,1.3Z"/><path class="cls-1" d="M146.88,324.8c0-.85,.14-1.61,.41-2.28s.64-1.23,1.1-1.69,1-.81,1.61-1.05,1.25-.36,1.92-.36,1.31,.12,1.92,.36c.61,.24,1.14,.59,1.61,1.05s.83,1.03,1.1,1.69,.41,1.42,.41,2.28-.14,1.59-.41,2.26-.64,1.22-1.1,1.68-1,.8-1.61,1.04c-.61,.24-1.25,.36-1.92,.36s-1.31-.12-1.92-.36c-.61-.24-1.14-.58-1.61-1.04s-.83-1.01-1.1-1.68-.41-1.42-.41-2.26Zm1.79,0c0,.59,.08,1.12,.23,1.6,.15,.48,.37,.89,.66,1.23,.29,.34,.63,.61,1.03,.8,.4,.19,.84,.28,1.33,.28s.93-.09,1.33-.28c.4-.19,.74-.45,1.03-.8,.29-.34,.51-.75,.66-1.23,.15-.48,.23-1.01,.23-1.6s-.08-1.12-.23-1.61c-.15-.48-.38-.9-.66-1.25-.29-.35-.63-.62-1.03-.81-.4-.19-.84-.28-1.33-.28s-.93,.09-1.33,.28c-.4,.19-.74,.46-1.03,.81-.29,.35-.51,.77-.66,1.25-.15,.48-.23,1.02-.23,1.61Z"/><path class="cls-1" d="M167.06,329.88h-1.41l-.15-1.79h-.08c-.52,.6-1.08,1.09-1.69,1.47-.61,.38-1.31,.57-2.11,.57-1.23,0-2.13-.35-2.7-1.04-.57-.69-.85-1.72-.85-3.08v-6.34h1.74v6.11c0,.97,.18,1.68,.54,2.15s.96,.7,1.82,.7c.59,0,1.12-.15,1.6-.45,.48-.3,1-.78,1.57-1.44v-7.08h1.72v10.21Z"/><path class="cls-1" d="M169.25,319.67h1.43l.15,1.74h.08c.53-.57,1.11-1.05,1.72-1.43,.62-.38,1.32-.57,2.12-.57,1.22,0,2.11,.35,2.68,1.04,.57,.69,.85,1.72,.85,3.08v6.34h-1.72v-6.11c0-.97-.18-1.68-.55-2.15-.36-.47-.97-.7-1.81-.7-.31,0-.59,.04-.85,.12-.26,.08-.51,.19-.77,.35s-.51,.35-.78,.58c-.27,.23-.55,.5-.84,.81v7.12h-1.72v-10.21Z"/><path class="cls-1" d="M179.39,324.8c0-.83,.13-1.57,.39-2.24,.26-.67,.6-1.23,1.03-1.69,.43-.46,.92-.82,1.48-1.07,.56-.25,1.14-.38,1.74-.38s1.18,.12,1.66,.36c.48,.24,.95,.56,1.43,.97l-.06-1.89v-3.93h1.72v14.95h-1.43l-.15-1.34h-.06c-.42,.43-.92,.81-1.5,1.12-.58,.32-1.19,.47-1.82,.47-.67,0-1.28-.12-1.82-.36-.54-.24-1-.58-1.4-1.04-.39-.46-.69-1.01-.9-1.67-.21-.66-.32-1.41-.32-2.27Zm1.79-.02c0,1.23,.26,2.19,.79,2.88,.52,.69,1.26,1.03,2.22,1.03,1.01,0,1.97-.51,2.88-1.53v-5.08c-.46-.43-.91-.74-1.35-.92-.44-.18-.89-.27-1.33-.27s-.86,.09-1.25,.28c-.39,.19-.72,.46-1.01,.8-.29,.34-.51,.75-.68,1.23-.17,.48-.25,1.01-.25,1.6Z"/><path class="cls-1" d="M203.43,333.24h-1.55l6.89-18.27h1.55l-6.89,18.27Z"/><path class="cls-1" d="M223.21,316.1h1.78l4.47,8.69,1.39,2.81h.04c-.03-.69-.07-1.4-.14-2.15-.06-.75-.09-1.49-.09-2.21v-7.14h1.66v13.78h-1.79l-4.47-8.69-1.39-2.81h-.04c.03,.71,.07,1.43,.14,2.15s.09,1.44,.09,2.15v7.2h-1.66v-13.78Z"/><path class="cls-1" d="M234.2,319.67h6.47v10.21h-1.72v-8.8h-4.75v-1.41Zm5.42-2.1c-.41,0-.74-.12-1-.36-.26-.24-.39-.56-.39-.97s.13-.73,.39-.98c.26-.25,.59-.37,1-.37s.72,.12,.99,.37c.27,.25,.4,.57,.4,.98s-.13,.73-.4,.97c-.27,.24-.6,.36-.99,.36Z"/><path class="cls-1" d="M244.59,324.8c0-.84,.15-1.59,.44-2.26,.29-.66,.68-1.23,1.17-1.69,.48-.46,1.04-.82,1.66-1.06,.62-.24,1.26-.37,1.92-.37,.73,0,1.38,.12,1.95,.35,.57,.23,1.06,.56,1.46,.98,.4,.42,.7,.92,.91,1.51,.21,.59,.32,1.24,.32,1.95,0,.38-.02,.69-.06,.95h-7.98c.07,1.11,.46,1.98,1.17,2.62,.71,.64,1.62,.97,2.74,.97,.6,0,1.15-.08,1.65-.25,.5-.17,.98-.4,1.46-.69l.61,1.13c-.51,.32-1.08,.6-1.72,.84-.64,.24-1.38,.36-2.21,.36-.76,0-1.47-.12-2.13-.37-.67-.25-1.25-.59-1.74-1.05s-.89-1.01-1.18-1.67-.43-1.41-.43-2.25Zm8.23-.78c0-1.05-.27-1.85-.8-2.4-.53-.55-1.27-.83-2.23-.83-.42,0-.82,.07-1.21,.22-.38,.15-.73,.36-1.04,.63-.31,.27-.57,.61-.79,1.01-.22,.4-.35,.86-.41,1.38h6.47Z"/><path class="cls-1" d="M266.08,324.8c0-.85,.14-1.61,.41-2.28,.27-.67,.64-1.23,1.1-1.69s1-.81,1.61-1.05c.61-.24,1.25-.36,1.92-.36s1.31,.12,1.92,.36,1.14,.59,1.61,1.05c.46,.46,.83,1.03,1.1,1.69s.41,1.42,.41,2.28-.14,1.59-.41,2.26-.64,1.22-1.1,1.68c-.46,.46-1,.8-1.61,1.04-.61,.24-1.25,.36-1.92,.36s-1.31-.12-1.92-.36c-.61-.24-1.14-.58-1.61-1.04s-.83-1.01-1.1-1.68c-.27-.67-.41-1.42-.41-2.26Zm1.79,0c0,.59,.08,1.12,.23,1.6,.15,.48,.38,.89,.66,1.23,.29,.34,.63,.61,1.03,.8,.4,.19,.84,.28,1.33,.28s.94-.09,1.33-.28c.4-.19,.74-.45,1.03-.8,.29-.34,.51-.75,.66-1.23,.15-.48,.23-1.01,.23-1.6s-.08-1.12-.23-1.61c-.15-.48-.38-.9-.66-1.25-.29-.35-.63-.62-1.03-.81-.4-.19-.84-.28-1.33-.28s-.93,.09-1.33,.28c-.4,.19-.74,.46-1.03,.81-.29,.35-.51,.77-.66,1.25s-.23,1.02-.23,1.61Z"/><path class="cls-1" d="M276.91,324.8c0-.83,.13-1.57,.39-2.24,.26-.67,.6-1.23,1.03-1.69,.43-.46,.92-.82,1.48-1.07,.56-.25,1.14-.38,1.74-.38s1.18,.12,1.66,.36c.48,.24,.95,.56,1.43,.97l-.06-1.89v-3.93h1.72v14.95h-1.43l-.15-1.34h-.06c-.42,.43-.92,.81-1.5,1.12-.58,.32-1.19,.47-1.82,.47-.67,0-1.28-.12-1.82-.36-.54-.24-1-.58-1.4-1.04-.39-.46-.69-1.01-.9-1.67-.21-.66-.31-1.41-.31-2.27Zm1.79-.02c0,1.23,.26,2.19,.79,2.88,.53,.69,1.26,1.03,2.21,1.03,1.01,0,1.97-.51,2.88-1.53v-5.08c-.46-.43-.91-.74-1.35-.92-.44-.18-.89-.27-1.33-.27s-.87,.09-1.25,.28c-.38,.19-.72,.46-1.01,.8-.29,.34-.51,.75-.68,1.23-.17,.48-.25,1.01-.25,1.6Z"/><path class="cls-1" d="M288.44,319.67h1.43l.15,1.74h.08c.53-.57,1.11-1.05,1.72-1.43,.62-.38,1.32-.57,2.12-.57,1.22,0,2.11,.35,2.68,1.04,.57,.69,.85,1.72,.85,3.08v6.34h-1.72v-6.11c0-.97-.18-1.68-.55-2.15-.36-.47-.96-.7-1.8-.7-.31,0-.59,.04-.85,.12s-.51,.19-.77,.35-.51,.35-.78,.58c-.27,.23-.55,.5-.84,.81v7.12h-1.72v-10.21Z"/><path class="cls-1" d="M299.02,327.23c0-.57,.14-1.07,.41-1.5s.71-.79,1.3-1.1c.6-.31,1.36-.56,2.3-.76,.94-.2,2.06-.35,3.38-.46-.01-.35-.07-.68-.17-.99-.1-.31-.25-.58-.46-.81-.21-.23-.49-.42-.83-.56-.34-.14-.76-.21-1.25-.21-.67,0-1.32,.13-1.93,.39-.62,.26-1.16,.54-1.64,.83l-.67-1.18c.25-.17,.55-.34,.89-.51,.34-.17,.71-.33,1.09-.47,.38-.14,.79-.26,1.23-.35s.88-.14,1.32-.14c1.4,0,2.44,.38,3.12,1.14,.68,.76,1.02,1.78,1.02,3.06v6.26h-1.41l-.15-1.39h-.06c-.57,.45-1.21,.83-1.9,1.15-.69,.32-1.4,.48-2.13,.48-.48,0-.92-.07-1.34-.2s-.79-.32-1.1-.57c-.32-.25-.56-.55-.75-.9-.18-.36-.27-.77-.27-1.23Zm1.68-.13c0,.29,.06,.54,.19,.75,.13,.2,.29,.37,.49,.5s.44,.23,.71,.29c.27,.06,.56,.09,.85,.09,.59,0,1.17-.13,1.73-.39s1.14-.63,1.73-1.12v-2.69c-1.09,.08-2.01,.2-2.74,.36-.74,.15-1.32,.34-1.76,.56-.44,.22-.75,.46-.94,.74s-.27,.58-.27,.91Z"/><path class="cls-1" d="M309.86,314.93h5.21v11.66c0,.76,.18,1.3,.54,1.63,.36,.33,.84,.49,1.46,.49,.56,0,1.2-.16,1.93-.48l.44,1.3c-.46,.17-.9,.31-1.3,.43-.41,.12-.89,.18-1.45,.18-1.09,0-1.92-.31-2.49-.92-.57-.62-.85-1.53-.85-2.75v-10.12h-3.49v-1.41Z"/><path class="cls-1" d="M320.44,324.8c0-.84,.15-1.59,.44-2.26,.29-.66,.68-1.23,1.17-1.69,.48-.46,1.04-.82,1.66-1.06,.62-.24,1.26-.37,1.92-.37,.73,0,1.38,.12,1.95,.35,.57,.23,1.06,.56,1.46,.98s.7,.92,.91,1.51c.21,.59,.31,1.24,.31,1.95,0,.38-.02,.69-.06,.95h-7.98c.07,1.11,.46,1.98,1.17,2.62,.71,.64,1.62,.97,2.74,.97,.6,0,1.15-.08,1.65-.25,.5-.17,.98-.4,1.46-.69l.61,1.13c-.5,.32-1.08,.6-1.72,.84-.64,.24-1.38,.36-2.21,.36-.76,0-1.47-.12-2.13-.37-.66-.25-1.25-.59-1.74-1.05-.5-.46-.89-1.01-1.18-1.67-.29-.66-.43-1.41-.43-2.25Zm8.23-.78c0-1.05-.27-1.85-.8-2.4-.53-.55-1.27-.83-2.22-.83-.42,0-.82,.07-1.21,.22-.38,.15-.73,.36-1.04,.63-.31,.27-.57,.61-.79,1.01-.22,.4-.35,.86-.41,1.38h6.47Z"/><path class="cls-1" d="M331.32,328.96l6.99-7.88h-6.22v-1.41h8.7v.92l-7.01,7.88h7.22v1.41h-9.68v-.92Z"/><path class="cls-1" d="M342.56,319.67h6.47v10.21h-1.72v-8.8h-4.75v-1.41Zm5.42-2.1c-.41,0-.74-.12-1-.36-.26-.24-.39-.56-.39-.97s.13-.73,.39-.98c.26-.25,.59-.37,1-.37s.72,.12,.99,.37,.4,.57,.4,.98-.13,.73-.4,.97-.59,.36-.99,.36Z"/><path class="cls-1" d="M352.76,324.8c0-.85,.14-1.61,.41-2.28s.64-1.23,1.1-1.69c.46-.46,1-.81,1.61-1.05s1.25-.36,1.92-.36,1.31,.12,1.92,.36c.61,.24,1.14,.59,1.61,1.05,.46,.46,.83,1.03,1.1,1.69,.27,.67,.41,1.42,.41,2.28s-.14,1.59-.41,2.26c-.27,.67-.64,1.22-1.1,1.68-.46,.46-1,.8-1.61,1.04-.61,.24-1.25,.36-1.92,.36s-1.31-.12-1.92-.36c-.61-.24-1.14-.58-1.61-1.04-.46-.46-.83-1.01-1.1-1.68s-.41-1.42-.41-2.26Zm1.79,0c0,.59,.08,1.12,.23,1.6,.15,.48,.37,.89,.66,1.23,.29,.34,.63,.61,1.03,.8,.4,.19,.84,.28,1.33,.28s.93-.09,1.33-.28c.4-.19,.74-.45,1.03-.8,.29-.34,.51-.75,.66-1.23,.15-.48,.23-1.01,.23-1.6s-.08-1.12-.23-1.61-.38-.9-.66-1.25c-.29-.35-.63-.62-1.03-.81-.4-.19-.84-.28-1.33-.28s-.94,.09-1.33,.28c-.4,.19-.74,.46-1.03,.81-.29,.35-.51,.77-.66,1.25-.15,.48-.23,1.02-.23,1.61Z"/><path class="cls-1" d="M364.29,319.67h1.43l.15,1.74h.08c.53-.57,1.11-1.05,1.72-1.43,.62-.38,1.32-.57,2.12-.57,1.22,0,2.11,.35,2.68,1.04,.57,.69,.85,1.72,.85,3.08v6.34h-1.72v-6.11c0-.97-.18-1.68-.54-2.15-.37-.47-.97-.7-1.81-.7-.31,0-.59,.04-.85,.12-.26,.08-.52,.19-.77,.35s-.51,.35-.78,.58c-.27,.23-.54,.5-.84,.81v7.12h-1.72v-10.21Z"/><path class="cls-1" d="M374.43,324.8c0-.85,.14-1.61,.41-2.28,.27-.67,.64-1.23,1.1-1.69s1-.81,1.61-1.05c.61-.24,1.25-.36,1.92-.36s1.31,.12,1.92,.36,1.14,.59,1.61,1.05c.46,.46,.83,1.03,1.1,1.69s.41,1.42,.41,2.28-.14,1.59-.41,2.26-.64,1.22-1.1,1.68c-.46,.46-1,.8-1.61,1.04-.61,.24-1.25,.36-1.92,.36s-1.31-.12-1.92-.36c-.61-.24-1.14-.58-1.61-1.04s-.83-1.01-1.1-1.68c-.27-.67-.41-1.42-.41-2.26Zm1.79,0c0,.59,.08,1.12,.23,1.6,.15,.48,.38,.89,.66,1.23,.29,.34,.63,.61,1.03,.8,.4,.19,.84,.28,1.33,.28s.94-.09,1.33-.28c.4-.19,.74-.45,1.03-.8,.29-.34,.51-.75,.66-1.23,.15-.48,.23-1.01,.23-1.6s-.08-1.12-.23-1.61c-.15-.48-.38-.9-.66-1.25-.29-.35-.63-.62-1.03-.81-.4-.19-.84-.28-1.33-.28s-.93,.09-1.33,.28c-.4,.19-.74,.46-1.03,.81-.29,.35-.51,.77-.66,1.25s-.23,1.02-.23,1.61Z"/><path class="cls-1" d="M397.2,327.4c.57,.42,1.19,.76,1.85,1.01s1.45,.38,2.37,.38,1.61-.15,2.06-.46c.45-.31,.67-.69,.67-1.13,0-.39-.24-.74-.72-1.05-.48-.31-1.35-.62-2.59-.92-.53-.13-1.03-.28-1.5-.46-.47-.18-.88-.4-1.23-.64s-.63-.51-.84-.81c-.21-.29-.31-.62-.31-.99,0-.41,.09-.79,.27-1.14,.18-.36,.45-.67,.81-.92,.36-.26,.8-.46,1.34-.61,.54-.15,1.16-.22,1.86-.22,.77,0,1.52,.13,2.25,.39,.73,.26,1.34,.56,1.85,.91l-.84,1.11c-.45-.32-.95-.58-1.49-.78-.55-.2-1.13-.29-1.77-.29-.47,0-.88,.04-1.2,.12-.32,.08-.58,.18-.78,.31-.2,.13-.34,.29-.42,.47s-.13,.37-.13,.57c0,.42,.29,.77,.86,1.04s1.32,.53,2.25,.77c1.39,.35,2.41,.75,3.08,1.2,.66,.45,1,1.06,1,1.85,0,.42-.1,.81-.29,1.18-.2,.36-.49,.69-.87,.97-.39,.28-.86,.5-1.43,.66-.57,.16-1.21,.24-1.94,.24-1.01,0-1.94-.16-2.78-.47-.85-.31-1.59-.69-2.21-1.12l.84-1.13Z"/><path class="cls-1" d="M410.01,321.08h-2.88v-1.3l2.94-.11,.23-2.86h1.43v2.86h5v1.41h-5v4.85c0,.46,.04,.87,.13,1.21s.22,.63,.42,.87c.2,.24,.46,.42,.8,.54,.34,.12,.75,.18,1.24,.18s.93-.04,1.32-.13,.77-.2,1.13-.34l.36,1.26c-.45,.17-.95,.31-1.51,.43-.56,.12-1.12,.18-1.68,.18-.74,0-1.37-.1-1.87-.3-.5-.2-.91-.49-1.21-.86s-.52-.82-.65-1.33c-.13-.52-.2-1.09-.2-1.72v-4.83Z"/><path class="cls-1" d="M419.58,319.67h1.43l.15,2.42h.06c.53-.83,1.19-1.48,1.96-1.95,.78-.48,1.64-.71,2.59-.71,.38,0,.72,.03,1.04,.09,.31,.06,.63,.17,.96,.33l-.36,1.49c-.36-.13-.67-.22-.92-.27-.25-.06-.58-.08-.99-.08-.77,0-1.51,.22-2.22,.66-.71,.44-1.37,1.19-1.98,2.26v5.99h-1.72v-10.21Z"/><path class="cls-1" d="M428.61,324.8c0-.85,.14-1.61,.41-2.28s.64-1.23,1.1-1.69c.46-.46,1-.81,1.61-1.05s1.25-.36,1.92-.36,1.31,.12,1.92,.36c.61,.24,1.14,.59,1.61,1.05,.46,.46,.83,1.03,1.1,1.69,.27,.67,.41,1.42,.41,2.28s-.14,1.59-.41,2.26c-.27,.67-.64,1.22-1.1,1.68-.46,.46-1,.8-1.61,1.04-.61,.24-1.25,.36-1.92,.36s-1.31-.12-1.92-.36c-.61-.24-1.14-.58-1.61-1.04-.46-.46-.83-1.01-1.1-1.68s-.41-1.42-.41-2.26Zm1.79,0c0,.59,.08,1.12,.23,1.6,.15,.48,.37,.89,.66,1.23,.29,.34,.63,.61,1.03,.8,.4,.19,.84,.28,1.33,.28s.93-.09,1.33-.28c.4-.19,.74-.45,1.03-.8,.29-.34,.51-.75,.66-1.23,.15-.48,.23-1.01,.23-1.6s-.08-1.12-.23-1.61-.38-.9-.66-1.25c-.29-.35-.63-.62-1.03-.81-.4-.19-.84-.28-1.33-.28s-.94,.09-1.33,.28c-.4,.19-.74,.46-1.03,.81-.29,.35-.51,.77-.66,1.25-.15,.48-.23,1.02-.23,1.61Z"/><path class="cls-1" d="M440.14,319.67h1.43l.15,1.74h.08c.53-.57,1.11-1.05,1.72-1.43,.62-.38,1.32-.57,2.12-.57,1.22,0,2.11,.35,2.68,1.04,.57,.69,.85,1.72,.85,3.08v6.34h-1.72v-6.11c0-.97-.18-1.68-.55-2.15-.36-.47-.96-.7-1.8-.7-.31,0-.59,.04-.85,.12s-.51,.19-.77,.35-.51,.35-.78,.58c-.27,.23-.55,.5-.84,.81v7.12h-1.72v-10.21Z"/><path class="cls-1" d="M451.24,332.8c.16,.03,.32,.04,.47,.04,.71,0,1.29-.21,1.74-.62,.45-.41,.8-.93,1.05-1.56l.31-.76-4.77-10.23h1.74l2.5,5.65c.2,.45,.4,.93,.62,1.45,.22,.52,.43,1.02,.64,1.51h.08c.18-.49,.37-.99,.56-1.5,.19-.51,.37-1,.54-1.46l2.23-5.65h1.64l-4.49,11.05c-.2,.5-.42,.97-.67,1.41-.25,.43-.55,.81-.9,1.12-.35,.32-.75,.56-1.21,.75-.46,.18-.97,.27-1.54,.27-.5,0-.95-.07-1.34-.21l.36-1.36c.14,.04,.29,.08,.45,.1Z"/></g></svg>